<?xml version="1.0" encoding="utf-8"?>
<!-- Generator: Adobe Illustrator 22.0.0, SVG Export Plug-In . SVG Version: 6.00 Build 0)  -->
<svg version="1.1" id="Camada_1" xmlns="http://www.w3.org/2000/svg" xmlns:xlink="http://www.w3.org/1999/xlink" x="0px" y="0px"
	 viewBox="0 0 480 480" style="enable-background:new 0 0 480 480;" xml:space="preserve">
<style type="text/css">
	.st0{fill:#FCDCCF;stroke:#111111;stroke-miterlimit:10;}
	.st1{fill:#FCDCCF;}
	.st2{fill:#F7F9F8;stroke:#111111;stroke-miterlimit:10;}
	.st3{fill:#669E6B;stroke:#151615;stroke-miterlimit:10;}
	.st4{fill:#78C646;stroke:#111111;stroke-miterlimit:10;}
	.st5{fill:#6EA54A;}
	.st6{fill:#757373;stroke:#070707;stroke-miterlimit:10;}
	.st7{fill:none;stroke:#0F0E0E;stroke-miterlimit:10;}
	.st8{fill:#605F5F;}
	.st9{fill:#F7C0AA;}
	.st10{fill:#4D8955;stroke:#0A0A0A;stroke-miterlimit:10;}
	.st11{fill:none;stroke:#0C0C0C;stroke-miterlimit:10;}
	.st12{fill:none;stroke:#0F0F0F;stroke-miterlimit:10;}
	.st13{fill:#78C646;}
	.st14{fill:#669E6B;}
	.st15{fill:#FCDCCF;stroke:#151615;stroke-miterlimit:10;}
	.st16{fill:#605F5F;stroke:#111111;stroke-miterlimit:10;}
	.st17{fill:#F7C0AA;stroke:#111111;stroke-miterlimit:10;}
	.st18{fill:none;stroke:#232222;stroke-miterlimit:10;}
	.st19{fill:#4D8955;}
	.st20{fill:#686868;}
	.st21{fill:#F7C0AA;stroke:#000000;stroke-miterlimit:10;}
	.st22{fill:none;stroke:#111111;stroke-miterlimit:10;}
	.st23{fill:#7C7C7C;}
	.st24{fill:#8C8B8B;}
	.st25{fill:#4D8955;stroke:#111111;stroke-miterlimit:10;}
	.st26{fill:#FFFFFF;stroke:#141414;stroke-miterlimit:10;}
	.st27{fill:#070707;}
	.st28{fill:#FFFFFF;}
	.st29{fill:#D65656;}
</style>
<g>
	<g>
		<g>
			<path class="st0" d="M355.1,270.7c0.3,1.2,1,2.3,2,3.2l9.6,7.9c0,0.5,0,1.1,0.2,1.6c0.3,1,0.8,1.8,1.4,2.4
				c-2,0.2-3.8,1.5-4.6,3.2c-0.4,0.9-0.6,1.8-0.6,2.8c0.2,3.2,3,5.7,6.2,5.6l2.8-0.1c-2.2,0.2-4,1.5-4.9,3.3
				c-0.4,0.8-0.7,1.8-0.6,2.8c0.1,1.1,0.4,2.1,1,2.9l-9,0.4c-3.4,3.5-8.8,4.1-14.7,4.2l-25.3,0.6c-5.2,0.1-9.9-1.8-13.4-4.9
				c-3.8-3.3-6.3-8.2-6.4-13.6c-0.2-5.2,1.9-10,5.3-13.6c3.4-3.5,8.2-5.8,13.5-5.9l25.3-0.6c2.7-0.1,5.2,0,7.5,0.3
				c0.9-0.4,1.9-0.9,2.7-1.4C353.7,271.4,354.4,271,355.1,270.7z"/>
			<g>
				<path class="st0" d="M376.6,264.8c2.9,2.5,0.9,6,0.6,9.1c0,0.2,0,0.3,0,0.5c0,0.4,0,0.9,0.1,1.3c0,0,0,0.1,0,0.1
					c0.1,0.5,0.3,0.9,0.6,1.4c0.2,0.3,0.4,0.5,0.7,0.8l0.7,7.3l0.1,0.7l1.1,11l0.9,8.7l-14.1,0.6c-0.6-0.8-0.9-1.8-1-2.9
					c-0.1-1,0.2-2,0.6-2.8c0.9-1.8,2.7-3.1,4.9-3.3l-2.8,0.1c-3.3,0.2-6.1-2.4-6.2-5.6c-0.1-1,0.2-2,0.6-2.8c0.9-1.8,2.6-3,4.6-3.2
					c-0.6-0.6-1.1-1.5-1.4-2.4c-0.2-0.5-0.2-1.1-0.2-1.6l-9.6-7.9c-1-0.9-1.7-2-2-3.2c3.1-1.6,7.1-2.9,10.8-3.7
					c0.3-0.1,0.7-0.2,1-0.2C372.1,265.5,376.5,264.9,376.6,264.8z"/>
				<path class="st0" d="M393.4,302.1c0.2,3.2-2.4,6-5.7,6.1l-14.9,0.7c-2.2,0.1-4.2-1-5.3-2.7c-0.6-0.8-0.9-1.8-1-2.9
					c-0.1-1,0.2-2,0.6-2.8c0.9-1.8,2.7-3.1,4.9-3.3l8.6-0.4l6.4-0.3C390.4,296.4,393.3,298.9,393.4,302.1z"/>
				<path class="st0" d="M393.1,276c0.9,3.1-0.9,6.3-4.1,7.2l-6.4,1.8l-3,0.9l-5.4,1.5c-2.2,0.6-4.5-0.1-6-1.6
					c-0.6-0.6-1.1-1.5-1.4-2.4c-0.2-0.5-0.2-1.1-0.2-1.6c0-0.9,0.2-1.8,0.6-2.6c0.7-1.4,2-2.6,3.7-3l5.5-1.5l0.8-0.2l8.5-2.4
					C388.9,271.1,392.3,272.9,393.1,276z"/>
				<path class="st0" d="M395.8,290.3c0.2,3.2-2.4,6-5.7,6.1l-3,0.1l-6.4,0.3l-8.6,0.4l-2.8,0.1c-3.3,0.2-6.1-2.4-6.2-5.6
					c-0.1-1,0.2-2,0.6-2.8c0.9-1.8,2.6-3,4.6-3.2c0.1,0,0.3-0.1,0.4-0.1l10.8-0.5l3.1-0.2l6.9-0.3
					C392.9,284.6,395.7,287.1,395.8,290.3z"/>
				<path class="st0" d="M389.1,262.6l1,3.5c0.6,2.1-0.6,4.4-2.8,5l-16.1,4.5c-2.2,0.6-4.5-0.6-5.1-2.8l-1-3.5
					c-0.6-2.1,0.6-4.4,2.8-5l16.1-4.5C386.2,259.2,388.5,260.5,389.1,262.6z"/>
				<path class="st0" d="M363.6,264.1c0.4,0.2,0.8,0.5,1.2,0.8l1.6,1.3l0.6,0.5l9.2,7.5l0.1,0.1c0.1,0.1,0.2,0.2,0.3,0.3
					c0.4,0.3,0.7,0.7,0.9,1.1c0,0,0,0.1,0,0.1c0.1,0.5,0.3,0.9,0.6,1.4c0.6,1.8,0.2,3.9-1.1,5.5c-2.1,2.4-5.9,2.8-8.4,0.7l-1.9-1.5
					l-9.6-7.9c-1-0.9-1.7-2-2-3.2c-0.4-1.7,0-3.6,1.2-5C358.1,263.5,361.1,263,363.6,264.1z"/>
			</g>
		</g>
		<g>
			<g id="ombro_direito_28_">
				<path class="st1" d="M293.7,258.9l27.5,16.8c10.1,6.2,15.2,16.2,9.1,26.2c-5.1,8.2-17.5,9.9-27.5,3.7l-27.5-16.8
					c-10.1-6.2-14.2-17.9-9.1-26.2c2.5-4.1,6.9-6.6,11.9-7.3C283,254.7,288.6,255.8,293.7,258.9z"/>
				<path class="st2" d="M291.5,257.6l22,13.4c-5.3,6.5-10.6,13.8-17,20.5c-2.1,2.2-4.4,4.2-6.9,6L273,287.5
					c-8.9-5.4-12-16.6-6.9-24.8c2.5-4.1,6.7-6.7,11.2-7.7C282,254.1,287,254.9,291.5,257.6z"/>
			</g>
		</g>
	</g>
	<g>
		<path class="st3" d="M313.6,409.4l-14.2,9.4l-0.3,0.2l-2.3,1.5l-11.4,7.6l-0.4-0.5c0.5-2.4,2.2-5.3,5.4-8.8l3.9-4.4h0l3.9-4.3
			c4.6-5.1,8.1-6.8,11.1-6.7l1,1.4l0.4,0.6L313.6,409.4z"/>
		<path class="st3" d="M309.5,403.4c-3.1-0.1-6.6,1.6-11.1,6.7l-3.9,4.3h0l-3.9,4.4c-3.2,3.5-4.8,6.4-5.4,8.8l-18.6-27.7
			c-1.5-0.5-3.1-1.2-4.7-1.9l-25.3-11.1c-5.3-2.3-9.3-6.4-11.4-11.1c-2.1-4.7-2.4-10-0.3-14.8c2.2-5,6.5-8.4,11.7-10
			c4.8-1.5,10.2-1.2,15.4,1l25.3,11.1c7.2,3.1,13.2,6.5,14.2,13.2L309.5,403.4z"/>
		<g>
			<path class="st4" d="M323.5,425.7c-0.9,1.2-2,2.6-3.3,4l-3.9,4.4h0l-0.3,0.4l-3.6,4c-8,8.9-11.9,8.7-15.5,6
				c-1.7-1.3-3.3-3.2-5.2-4.9c-1-0.9-1.9-1.7-2.7-2.5c-0.8-0.8-1.5-1.6-2.2-2.5c0,0,0,0,0,0c-0.8-1-1.3-2.1-1.6-3.3
				c-0.3-1.1-0.3-2.3,0-3.6c0.5-2.4,2.2-5.3,5.4-8.8l3.9-4.4l3.9-4.3c4.6-5.1,8.1-6.8,11.1-6.7c0.7,0,1.3,0.1,1.9,0.3
				c0.5,0.1,1,0.3,1.5,0.6c2.1,1,4,2.8,6.1,4.7c1.5,1.4,3,2.5,4.3,3.7c0.8,0.7,1.6,1.5,2.1,2.3C327.2,417.5,327.2,420.5,323.5,425.7
				z"/>
			<path class="st5" d="M323.5,425.7c-0.9,1.2-2,2.6-3.3,4l-3.9,4.4h0v0l-9.5-8.6l-7.3-6.6l-0.1-0.1l-0.5-0.5l-4.3-3.9h0l3.9-4.3
				c4.6-5.1,8.1-6.8,11.1-6.7c0.7,0,1.3,0.1,1.9,0.3c0.5,0.1,1,0.3,1.5,0.6c2.1,1,4,2.8,6.1,4.7c1.5,1.4,3,2.5,4.3,3.7
				c0.8,0.7,1.6,1.5,2.1,2.3C327.2,417.5,327.2,420.5,323.5,425.7z"/>
			<g id="pé_esquerdo_37_">
				<path class="st6" d="M300.5,452.2c2.3,1.9,3.8,3.1,4.4,3.9l44.2-51c0.9-1-1-1.3-2.3-1.8c-0.9-0.4-1.8-0.9-2.8-1.3
					c-2.5-1.2-5-2.3-7.3-3.1c-1.8-0.6-3.4-0.9-4.9-0.8c0,0-6.4-1.6-20.4,5.6l-25,28.8c0.6,8.1,2.7,10.1,7,13.7l0.3,0.2
					C296.4,448.8,298.7,450.7,300.5,452.2z"/>
				<path class="st7" d="M304.9,456.1l44.2-51c0.9-1-1-1.3-2.3-1.8c-0.9-0.4-1.8-0.9-2.8-1.3l-43.6,50.2
					C302.8,454,304.3,455.3,304.9,456.1z"/>
				<path class="st8" d="M295.7,423c7.4,6.3,22.4,1.1,33.5-11.8c3-3.5,5.4-7.2,7.2-10.8c-1.8-0.6-3.4-0.9-4.9-0.8
					c0,0-6.4-1.6-20.4,5.6L295.7,423z"/>
				<path class="st8" d="M295.1,445.7c0.8-0.5,1.5-1.2,2.2-2c4.2-4.9,3.7-12.3-1.2-16.5c-0.8-0.7-1.6-1.2-2.5-1.6l-5.5,6.4
					C288.7,440.1,290.9,442.1,295.1,445.7z"/>
			</g>
		</g>
	</g>
	<g id="torço_completo_19_">
		<path id="torço_camiseta_19_" class="st2" d="M282.8,308c1.7-8.6,11.2-34,1.5-54.9c0,0,0-0.1,0-0.1c0,0,0,0-0.1,0
			c-3.6,0.8-7.6,1.3-11.8,1.4c-5,0.2-10.4-0.3-15.9-1.4c-6.9-1.4-13.2-3.2-18.6-5.3c-4.9-1.9-9.1-4-12.6-6.4c-6-4-9.8-8.5-10.8-13.1
			c-17.8,8.7-26.6,29.7-31,44.8c-1.8,6.1-2.8,11.3-3.4,14.3c-11.1,72.3-33,75,35.5,88.8C280.6,389.2,269,376.2,282.8,308z"/>
		<path id="pele_19_" class="st9" d="M284.3,252.9C284.2,252.9,284.2,253,284.3,252.9c-3.7,0.8-7.6,1.3-11.8,1.4
			c-5,0.2-10.4-0.3-15.9-1.4c-6.9-1.4-13.2-3.2-18.6-5.3c-4.9-1.9-9.1-4-12.6-6.4c-6-4-9.8-8.5-10.8-13.1c7.6-3.7,16.8-5.1,28-2.9
			C266.5,230.1,278.7,240.7,284.3,252.9z"/>
		<g id="macacão_19_">
			<path class="st10" d="M239.4,380.1c-6.5-0.7-14.3-2.1-23.8-4c-68.5-13.7-46.6-16.4-35.5-88.8c0.6-3,1.7-8.2,3.4-14.3
				c6.1,1.6,12.6,4,18.3,4.5c3.4,0.3,6.5-0.1,9.1-1.8c10.2-6.7,12.9-24.6,14.3-34.5c3.5,2.3,7.7,4.5,12.6,6.4
				c-4.4,19.9-8,35.5,10,39.1c21.6,4.3,20.4-7.5,24.5-32.4c4.2-0.1,8.1-0.6,11.8-1.4c0,0,0.1,0.1,0.1,0.1
				c9.7,20.9,0.2,46.3-1.5,54.9C271,366.3,277.8,384.2,239.4,380.1z"/>
			<line class="st11" x1="210.2" y1="296.9" x2="275.3" y2="310"/>
			<path class="st12" d="M209.5,300.3c-2.8,49.1,51.3,63.5,65.1,13.1"/>
			<ellipse class="st13" cx="276.7" cy="287.4" rx="5.1" ry="5.1"/>
			<path class="st14" d="M239.4,380.1c-6.5-0.7-14.3-2.1-23.8-4c-68.5-13.7-46.6-16.4-35.5-88.8c0.6-3,1.7-8.2,3.4-14.3
				c6.1,1.6,12.6,4,18.3,4.5c1.2,16.5,1.3,33.6,6.3,47.3C216.4,347.8,240.5,353.1,239.4,380.1z"/>
			<ellipse class="st13" cx="224.6" cy="277" rx="5.1" ry="5.1"/>
		</g>
	</g>
	<g>
		<path class="st3" d="M226.2,425.2c0.2,0,0.4,0,0.6-0.1l0,0.5l-0.1,0.7l-1.4,17.3l-0.1,1.5l-11-0.9l-10-0.8l-9.5-0.8l-1.6-0.1
			l-1.5-0.1c0-0.4,0-0.9,0.1-1.3c0.4-3.2,3-6.3,9.6-9.6l5.3-2.6l5.2-2.6C219.1,422.7,223.3,423,226.2,425.2L226.2,425.2z"/>
		<path class="st3" d="M229.2,395.7l0,0.5C229.1,396.1,229.1,395.9,229.2,395.7L229.2,395.7z"/>
		<path class="st3" d="M229.1,396.2v0.1l-0.2,2.2c0,0,0,0,0,0.1l-2.2,26.6c-0.2,0-0.4,0-0.6,0.1h0c-2.9-2.2-7.1-2.5-14.5,1.2
			l-5.2,2.6l-5.3,2.6c-6.6,3.3-9.1,6.4-9.6,9.6c-0.1,0.4-0.1,0.9-0.1,1.3h-0.1l3-36c-1.3-1.8-2.5-3.9-3.7-6.1l-13.5-25
			c-2.8-5.3-3.5-11.1-2.3-16.2c1.2-5.1,4.3-9.5,8.9-12c4.8-2.6,10.4-2.6,15.4-0.5c4.7,1.9,9,5.6,11.7,10.7l13.5,25
			c2.5,4.6,4.5,9,4.7,13.2C229.1,395.9,229.1,396.1,229.1,396.2z"/>
		<g>
			<path class="st4" d="M229.2,450.1c-1.2,0.8-2.7,1.6-4.4,2.5l-5.2,2.6l-0.7,0.3l-4.5,2.3c-10.7,5.3-14.3,3.7-16.6-0.1
				c-1.1-1.8-1.9-4.1-3.1-6.4c-0.6-1.2-1.1-2.3-1.6-3.3c-0.4-1.1-0.9-2.1-1.1-3.1c-0.2-0.8-0.3-1.5-0.3-2.3c0-0.4,0-0.9,0.1-1.3
				c0.4-3.2,3-6.3,9.6-9.6l5.3-2.6l5.2-2.6c7.4-3.7,11.6-3.4,14.5-1.2h0c0.2,0.2,0.4,0.3,0.5,0.5c0.2,0.2,0.4,0.4,0.7,0.7
				c1.5,1.7,2.7,4.1,4,6.6c0.9,1.8,1.9,3.4,2.7,5c0.5,1,0.9,2,1.1,3C235.8,443.8,234.7,446.7,229.2,450.1z"/>
			<path class="st5" d="M229.2,450.1c-1.2,0.8-2.7,1.6-4.4,2.5l-5.2,2.6l0,0l-5.4-10.8l-0.3-0.6l-4.4-8.8l-0.3-0.6l-2.6-5.2l5.2-2.6
				c7.4-3.7,11.6-3.4,14.5-1.2h0c0.2,0.2,0.4,0.3,0.5,0.5c0.2,0.2,0.4,0.4,0.7,0.7c1.5,1.7,2.7,4.1,4,6.6c0.9,1.8,1.9,3.4,2.7,5
				c0.5,1,0.9,2,1.1,3C235.8,443.8,234.7,446.7,229.2,450.1z"/>
			<g id="pé_esquerdo_36_">
				<path class="st6" d="M260.8,440.2l-59.8,31.4c-0.2-0.9-1.2-2.7-2.7-5.2c-1.1-2-2.5-4.6-4.2-7.7l-0.2-0.3
					c-2.4-4.5-3.7-7.1-2-13.5c0.1-0.6,0.3-1.2,0.5-1.9l0.6-0.3l16-8.4l17.1-9h0c0.2,0,0.4,0,0.6-0.1c15.3-1.5,20.5,2.2,20.5,2.2
					c1.4,0.4,2.8,1.3,4.3,2.5c1.9,1.5,3.8,3.5,5.6,5.5c0.7,0.7,1.4,1.5,2.1,2.2C260.3,438.6,262,439.5,260.8,440.2z"/>
				<path class="st7" d="M200.9,471.6l59.8-31.4c1.2-0.6-0.5-1.6-1.4-2.5c-0.7-0.7-1.4-1.5-2.1-2.2l-58.9,31
					C199.7,468.9,200.7,470.7,200.9,471.6z"/>
				<path class="st8" d="M204.5,437.5c4.5,8.6,20.4,9.1,35.5,1.2c4.1-2.1,7.7-4.7,10.7-7.5c-1.5-1.2-2.9-2.1-4.3-2.5
					c0,0-5.3-3.8-21.1-2.2L204.5,437.5z"/>
				<path class="st8" d="M195.6,458.4c1-0.2,1.9-0.6,2.8-1c5.7-3,7.9-10.1,4.9-15.8c-0.5-0.9-1-1.7-1.7-2.4l-7.5,3.9
					C191.7,450.8,193,453.5,195.6,458.4z"/>
			</g>
		</g>
	</g>
	<g>
		<path class="st15" d="M304.2,296.5c-0.3,3.2-3.1,5.7-6.3,5.4l-0.6,0l-0.1,0.4l0.8,0c3.2,0.2,5.7,3.1,5.4,6.3
			c-0.3,3.2-3.1,5.7-6.3,5.4l-2.5-0.2l-0.2,0.9l2.7,0.8c3.1,1,4.8,4.3,3.9,7.3c-1,3.1-4.3,4.8-7.4,3.8l-2.3-0.7
			c0.2,0.1,0.3,0.2,0.5,0.3c2.4,1.3,3.7,4.2,2.8,6.9c-1,3.1-4.3,4.8-7.4,3.8l-14-4.4c-2.1-0.7-3.5-2.3-4-4.3l-8.8-2.7
			c-4,0.2-8.4-1.3-13.1-3.2l-25.8-10.4c-5.3-2.1-9.3-5.8-11.6-10.2c-2.5-4.7-3.1-10.2-1-15.2c1.9-4.8,5.9-8.3,10.8-10
			c4.8-1.7,10.6-1.7,16,0.4l25.8,10.4c2.6,1.1,5.1,2.2,7.3,3.5c0.4-0.1,0.8-0.1,1.3-0.2c0.2-1.7,1.2-3.4,2.8-4.3
			c1.5-0.8,3.2-1,4.7-0.5c1.3,0.4,2.6,1.3,3.3,2.6l1,1.8c1.1-0.8,2.4-1.2,3.9-1.1l12.9,0.9C302,290.4,304.4,293.2,304.2,296.5z"/>
		<g id="ombro_direito_27_">
			<path class="st1" d="M225.1,255.6l15.1,26.7c5.5,9.8,4.9,20.6-5.3,26.4c-8.4,4.7-19.9,0.6-25.4-9.2l-15.1-26.7
				c-5.5-9.8-3.1-21.7,5.3-26.4c4.2-2.4,9.2-2.5,13.8-0.9C218.1,247.2,222.4,250.7,225.1,255.6z"/>
			<path class="st2" d="M223.7,253.1l11.8,20.8c-7.7,3.2-16,7.1-24.7,9.9c-2.8,0.9-5.8,1.6-8.9,2.1l-8.8-15.6
				c-4.8-8.4-1.7-19.2,6.7-23.9c4.2-2.4,9-2.8,13.4-1.6C217.5,246.1,221.4,248.9,223.7,253.1z"/>
		</g>
	</g>
	<g>
		<path class="st16" d="M342.9,212.5c6.1,1.4,11.5,4.4,17.6,5.9c10.5,2.5,17.6,5.9,32.3,5.9c-8.8,2.9-25.2,5.3-38.2,5.9
			c-8.6,0.4-17.6,0-26.4-2.9C333.1,222.2,338,217.3,342.9,212.5z"/>
		<g id="face_21_">
			<path class="st17" d="M351.8,144.5c0,32.2-4.1,69.5-19.7,91.3c-3.9,5.5-8.7,10.1-14.2,13.3c-26.5,15.1-111.6,2.9-120.4-41
				c-2.1-13.4-7.8-86.6-5.9-111.2l157.1-1.5C350.2,106.6,351.8,124.6,351.8,144.5z"/>
			<path class="st1" d="M351.8,144.5c0,32.2-4.1,69.5-19.7,91.3c-13.9,9.6-32.1,11.8-52.4,7.4c-23.8-5.1-58.7-34.5-58.7-64.4
				c0-26.3,35.3-36.7,61.7-38C319.2,138.9,340.2,140.6,351.8,144.5z"/>
		</g>
		<path class="st18" d="M304.5,186.8c1.7,2.8,10.8,6.2,1.7,11.3"/>
		<g id="oculos_21_">
			<path class="st19" d="M223.9,146.6c0,49.7,8.8,58.5,35.2,58.5s35.2-2.9,35.2-58.5H223.9z M259.2,199.1c-20.9,0-27.9-7-27.9-46.3
				h55.8C287.1,196.7,280.1,199.1,259.2,199.1z"/>
			<path class="st19" d="M307.6,149.8c0,39.4,7,46.3,27.9,46.3s27.9-2.3,27.9-46.3H307.6z M335.5,190.5c-16.5,0-22-5-22-36.1h44.1
				C357.5,189.2,352,190.5,335.5,190.5z"/>
			<polygon class="st19" points="190.8,169 226.8,170.1 229,178.7 191.6,178.8 			"/>
			<rect x="291.5" y="165.7" class="st19" width="17.6" height="7.3"/>
		</g>
		<path class="st16" d="M354.7,123c-0.4,2-1,4-1.5,6.1h-32.3v-38l-8.8,35.1h-41.1l-5.9-38v41L221,143.7l-14.7-26.3l8.8,29.3
			l-11.7,35.1h-14.7c0-14.6-6.1-17.9-11.7-20.5c-5.1-2.3-11.7,0-17.6,11.7c-20.6-23.4-25.3-57.5-23.5-79c2.9-35.1,35.2-43.9,47-58.5
			c8.2-7.4,17.9-12.8,28.3-16.4c30.6-10.7,67.3-6.3,89.2,4.7C331.4,39.3,368.3,63.1,354.7,123z"/>
		<path class="st20" d="M354.7,123c-7.4-1.1-13.8-2.9-22.1-5.6c-2.9-13.7-5.9-27.3-8.8-41l-8.8,38c-5.9,0-14.7,0.5-20.6,0
			c-5.8-0.5-11.7,0-17.6-2.9c-3.9-9.7-7.8-19.5-11.7-29.3v32.2c-5.9,5.9-17.5,9.7-23.5,11.7c-5.7,1.9-11.7,2.9-17.6,2.9
			c-7.8-9.7-15.7-19.5-23.5-29.3v29.3c-2.9,2.9-10.4,5.9-17.6,5.9c-5.5,0-14.7-2.9-20.6-5.9c-2.9-8.8-2.9-17.9-2.9-26.3
			c0-7.2,0-14.6,2.9-20.5c5.9-11.7,21.7-4.9,29.4-14.6c9.4-11.9,2.9-17.6,2.9-26.3c0-9.2,7.3-11.2,16.6-22.2
			c30.6-10.7,67.3-6.3,89.2,4.7C331.4,39.3,368.3,63.1,354.7,123z"/>
		<g>
			<path class="st21" d="M188.7,167.1c-0.6,8.5-1.1,17-1.7,25.5c-0.4,6.1-0.8,12.2-1.2,18.3c-32.3,0-34.2-21.9-32.3-29.3
				c0.5-1.8,1.3-3.9,2.4-6.1C161.8,163.8,176.3,149.8,188.7,167.1z"/>
			<path class="st1" d="M188.7,167.1c-0.6,8.5-1.1,17-1.7,25.5c-4.3-0.8-9.2-3.2-13-5.1c-8.1-4-14.8-7.3-18.2-11.9
				C161.8,163.8,176.3,149.8,188.7,167.1z"/>
			<path class="st22" d="M165.2,178.8c0-11.7,17.6-11.7,20.6,5.9"/>
		</g>
		<path class="st16" d="M200.4,137.9c-5.9,11.7-17.6,46.8-14.7,70.2c2.4,19,11.6,43.9,41.1,43.9c-2.9,0-22.2-31.4-26.4-49.7
			C197.5,181.8,200.4,158.3,200.4,137.9z"/>
		<g id="rabo_de_cavalo_21_">
			<path class="st16" d="M188.7,47.2c-1.1,1-2.2,2.2-3.3,3.4C179.5,57,174.3,65,171,61.8c-5.9-5.9-14.6-12.5-23.5-5.9
				c-4.7,3.5-2.9,14.6,0,23.4c2.9,26.3,3.6,49.2,8.8,73.1c4.6,20.9,20.6,40,20.6,61.4c0,5.9-0.8,9.4-2.9,14.6
				c-2.7,6.5-9,14-11.7,20.5c-1-5.9-2-11.7-2.9-17.6c-14.7,17.6-29.9,23.4-44.1,23.4c-12.2,0-23.5-11.7-35.2-23.4
				c8.8-5.9,15.3-14.9,20.6-23.4c5.6-9,8.8-17.6,11.7-29.3c-2.9,2.9-4.9,4.9-8.8,5.9c-3.9,1-11.7,0-14.7,0
				c23.5-32.2-8.9-96.1-5.9-122.9c1.3-11.4,11.9-28.8,27.6-39.2C131.1,8.9,160.4,7.4,188.7,47.2z"/>
			<path class="st23" d="M188.7,47.2c-1.1,1-2.2,2.2-3.3,3.4c-0.9-1.1-1.7-2.3-2.6-3.4c-44.1-20.5-54-5.7-58.7,41
				c-2.9,29.3,35.8,98.9,5.9,128.7c2.9-2.9,2.1-8.2,2.9-14.6c0.8-6.2,0.3-15.2,0-14.6c-2.9,5.9-4.3,6.9-5.9,8.8
				c-2.7,3.2-8.6,8.8-8.8,8.8c2.9-8.8,7.2-17.9,8.8-26.3c1.4-7.2,0-14.6,0-20.5c0,0.1-14.6,8.7-14.7,8.8
				c11.7-41-17.2-70.7-14.7-105.3c0.8-10.9,4.2-22.1,9.6-32.9h0c1-2.1,2.1-4.2,3.3-6.3c1.1-0.7,2.2-1.4,3.4-2.1
				c0.5-0.3,1-0.5,1.4-0.8c4.1-2.2,8.4-3.9,13-4.8c0.1,0,0.2-0.1,0.3-0.1c16.3-3.4,35.3,2,54.2,24.8c0.7,0.8,1.4,1.6,2,2.5
				C186.1,43.7,187.4,45.4,188.7,47.2z"/>
			<path class="st24" d="M184.9,42.1c-1,0.9-1.8,1.7-2.1,2.1c-7-4.8-24.5-14.3-35.2-14.6c-12.1-0.3-23.5,5.9-35.2,11.7l17.6-17.6
				c-5.5,1.7-12.1,1.2-17.6,2.9c-1.3,0.4-3.1,1.2-5.1,2.2c1-2.1,2.1-4.2,3.3-6.3c1.1-0.7,2.2-1.4,3.4-2.1c0.5-0.3,1-0.5,1.4-0.8
				c4-2.1,8.3-3.7,13-4.8c0.1,0,0.2-0.1,0.3-0.1c16.3-3.4,35.3,2,54.2,24.8C183.6,40.4,184.2,41.3,184.9,42.1z"/>
			<path class="st25" d="M175.1,51.1c-4.3,5.9-9.8,10.5-3,14.1c4.8,2.5,8.2-1.3,12.5-7.2c4.3-5.9,9.9-13.7,4.1-16.6
				C182.8,38.4,179.4,45.2,175.1,51.1z"/>
		</g>
		<path class="st26" d="M283.4,169.7c0,12.3-10,22.3-22.4,22.3c-2.6,0-5.1-0.4-7.4-1.3c0.2,0.7,0.3,1.5,0.3,2.3
			c0,4.5-3.6,8.1-8.1,8.1s-8.1-3.6-8.1-8.1c0-4.1,3.1-7.5,7.1-8c-3.8-4-6.1-9.4-6.1-15.3c0-12.3,10-22.3,22.4-22.3
			C273.3,147.4,283.4,157.4,283.4,169.7z"/>
		<path class="st26" d="M343.6,191.5c-3.1,0.3-5.8-1.9-6.1-5c-0.1-0.6,0-1.1,0.1-1.6c-1.5,0.7-3.2,1.2-5,1.4
			c-8.5,0.9-16-5.3-16.9-13.7c-0.9-8.4,5.3-16,13.8-16.8c8.5-0.9,16,5.3,16.9,13.7c0.4,4.1-0.8,7.9-3.1,10.9c2.8,0,5.2,2.1,5.5,5
			C348.9,188.5,346.6,191.2,343.6,191.5z"/>
		<g id="bocaa_2_">
			<path class="st27" d="M299.8,202.1c-5.1,0-9.3,10.4-11.8,16.8c-2.5,6.5-3.4,13.5-3.4,21.9c3.4,1.7,11.4,0.9,16.9,0
				c5.2-0.8,13.5-3.4,15.2-5c0-5-2.3-12.9-5.1-18.5C308.8,211.6,304.9,202.1,299.8,202.1z"/>
			<path class="st28" d="M313.3,232.8c-1.3,1.3-7.9,3.3-12,4c-4.3,0.7-10.7,1.3-13.3,0c0-1.1,0-2.2,0.1-3.2
				c0.2-5.2,0.9-9.8,2.6-14.1c1-2.4,2.2-5.6,3.7-8.2c1.6-2.9,3.5-5.1,5.6-5.1c1.9,0,3.7,1.8,5.2,4.1c1.6,2.5,3,5.6,4.1,7.8
				c1.6,3.2,3,7.4,3.6,11C313.2,230.5,313.3,231.7,313.3,232.8z"/>
			<path class="st29" d="M313,229.2l-24.9,4.4c0.2-5.2,0.9-9.8,2.6-14.1c1-2.4,2.2-5.6,3.7-8.2l10.8-0.9c1.6,2.5,3,5.6,4.1,7.8
				C310.9,221.5,312.3,225.6,313,229.2z"/>
		</g>
	</g>
</g>
</svg>
